<svg width="85" height="91" viewBox="0 0 85 91" fill="none" xmlns="http://www.w3.org/2000/svg">
<path d="M8.75 14L7.32812 10.3672H2.75L1.34375 14H0L4.51562 2.53125H5.63281L10.125 14H8.75ZM6.91406 9.17188L5.58594 5.63281C5.41406 5.1849 5.23698 4.63542 5.05469 3.98438C4.9401 4.48438 4.77604 5.03385 4.5625 5.63281L3.21875 9.17188H6.91406ZM12.7969 14H11.5V1.84375H12.7969V14ZM16.8438 14H15.5469V1.84375H16.8438V14ZM31.125 14L29.7031 10.3672H25.125L23.7188 14H22.375L26.8906 2.53125H28.0078L32.5 14H31.125ZM29.2891 9.17188L27.9609 5.63281C27.7891 5.1849 27.612 4.63542 27.4297 3.98438C27.3151 4.48438 27.151 5.03385 26.9375 5.63281L25.5938 9.17188H29.2891ZM35.1719 14H33.875V5.4375H35.1719V14ZM33.7656 3.11719C33.7656 2.82031 33.8385 2.60417 33.9844 2.46875C34.1302 2.32812 34.3125 2.25781 34.5312 2.25781C34.7396 2.25781 34.9193 2.32812 35.0703 2.46875C35.2214 2.60938 35.2969 2.82552 35.2969 3.11719C35.2969 3.40885 35.2214 3.6276 35.0703 3.77344C34.9193 3.91406 34.7396 3.98438 34.5312 3.98438C34.3125 3.98438 34.1302 3.91406 33.9844 3.77344C33.8385 3.6276 33.7656 3.40885 33.7656 3.11719ZM41.8281 5.28125C42.2083 5.28125 42.5495 5.3125 42.8516 5.375L42.6719 6.57812C42.3177 6.5 42.0052 6.46094 41.7344 6.46094C41.0417 6.46094 40.4479 6.74219 39.9531 7.30469C39.4635 7.86719 39.2188 8.56771 39.2188 9.40625V14H37.9219V5.4375H38.9922L39.1406 7.02344H39.2031C39.5208 6.46615 39.9036 6.03646 40.3516 5.73438C40.7995 5.43229 41.2917 5.28125 41.8281 5.28125ZM47.875 14.1562C46.6354 14.1562 45.6745 13.776 44.9922 13.0156C44.3151 12.25 43.9766 11.1693 43.9766 9.77344C43.9766 8.34115 44.3203 7.23438 45.0078 6.45312C45.7005 5.67188 46.6849 5.28125 47.9609 5.28125C48.3724 5.28125 48.7839 5.32552 49.1953 5.41406C49.6068 5.5026 49.9297 5.60677 50.1641 5.72656L49.7656 6.82812C49.4792 6.71354 49.1667 6.61979 48.8281 6.54688C48.4896 6.46875 48.1901 6.42969 47.9297 6.42969C46.1901 6.42969 45.3203 7.53906 45.3203 9.75781C45.3203 10.8099 45.5312 11.6172 45.9531 12.1797C46.3802 12.7422 47.0104 13.0234 47.8438 13.0234C48.5573 13.0234 49.2891 12.8698 50.0391 12.5625V13.7109C49.4661 14.0078 48.7448 14.1562 47.875 14.1562ZM55.9844 5.28125C56.3646 5.28125 56.7057 5.3125 57.0078 5.375L56.8281 6.57812C56.474 6.5 56.1615 6.46094 55.8906 6.46094C55.1979 6.46094 54.6042 6.74219 54.1094 7.30469C53.6198 7.86719 53.375 8.56771 53.375 9.40625V14H52.0781V5.4375H53.1484L53.2969 7.02344H53.3594C53.6771 6.46615 54.0599 6.03646 54.5078 5.73438C54.9557 5.43229 55.4479 5.28125 55.9844 5.28125ZM63.875 14L63.6172 12.7812H63.5547C63.1276 13.3177 62.7005 13.6823 62.2734 13.875C61.8516 14.0625 61.3229 14.1562 60.6875 14.1562C59.8385 14.1562 59.1719 13.9375 58.6875 13.5C58.2083 13.0625 57.9688 12.4401 57.9688 11.6328C57.9688 9.90365 59.3516 8.9974 62.1172 8.91406L63.5703 8.86719V8.33594C63.5703 7.66406 63.4245 7.16927 63.1328 6.85156C62.8464 6.52865 62.3854 6.36719 61.75 6.36719C61.0365 6.36719 60.2292 6.58594 59.3281 7.02344L58.9297 6.03125C59.3516 5.80208 59.8125 5.6224 60.3125 5.49219C60.8177 5.36198 61.3229 5.29688 61.8281 5.29688C62.849 5.29688 63.6042 5.52344 64.0938 5.97656C64.5885 6.42969 64.8359 7.15625 64.8359 8.15625V14H63.875ZM60.9453 13.0859C61.7526 13.0859 62.3854 12.8646 62.8438 12.4219C63.3073 11.9792 63.5391 11.3594 63.5391 10.5625V9.78906L62.2422 9.84375C61.2109 9.88021 60.4661 10.0417 60.0078 10.3281C59.5547 10.6094 59.3281 11.0495 59.3281 11.6484C59.3281 12.1172 59.4688 12.474 59.75 12.7188C60.0365 12.9635 60.4349 13.0859 60.9453 13.0859ZM71.375 6.44531H69.1953V14H67.8984V6.44531H66.3672V5.85938L67.8984 5.39062V4.91406C67.8984 2.8099 68.8177 1.75781 70.6562 1.75781C71.1094 1.75781 71.6406 1.84896 72.25 2.03125L71.9141 3.07031C71.4141 2.90885 70.987 2.82812 70.6328 2.82812C70.1432 2.82812 69.7812 2.99219 69.5469 3.32031C69.3125 3.64323 69.1953 4.16406 69.1953 4.88281V5.4375H71.375V6.44531ZM75.7031 13.0859C75.9323 13.0859 76.1536 13.0703 76.3672 13.0391C76.5807 13.0026 76.75 12.9661 76.875 12.9297V13.9219C76.7344 13.9896 76.526 14.0443 76.25 14.0859C75.9792 14.1328 75.7344 14.1562 75.5156 14.1562C73.8594 14.1562 73.0312 13.2839 73.0312 11.5391V6.44531H71.8047V5.82031L73.0312 5.28125L73.5781 3.45312H74.3281V5.4375H76.8125V6.44531H74.3281V11.4844C74.3281 12 74.4505 12.3958 74.6953 12.6719C74.9401 12.9479 75.276 13.0859 75.7031 13.0859ZM84.1172 11.6641C84.1172 12.4609 83.8203 13.0755 83.2266 13.5078C82.6328 13.9401 81.7995 14.1562 80.7266 14.1562C79.5911 14.1562 78.7057 13.9766 78.0703 13.6172V12.4141C78.4818 12.6224 78.9219 12.7865 79.3906 12.9062C79.8646 13.026 80.3203 13.0859 80.7578 13.0859C81.4349 13.0859 81.9557 12.9792 82.3203 12.7656C82.6849 12.5469 82.8672 12.2161 82.8672 11.7734C82.8672 11.4401 82.7214 11.1562 82.4297 10.9219C82.1432 10.6823 81.5807 10.401 80.7422 10.0781C79.9453 9.78125 79.3776 9.52344 79.0391 9.30469C78.7057 9.08073 78.4557 8.82812 78.2891 8.54688C78.1276 8.26562 78.0469 7.92969 78.0469 7.53906C78.0469 6.84115 78.3307 6.29167 78.8984 5.89062C79.4661 5.48438 80.2448 5.28125 81.2344 5.28125C82.1562 5.28125 83.0573 5.46875 83.9375 5.84375L83.4766 6.89844C82.6172 6.54427 81.8385 6.36719 81.1406 6.36719C80.526 6.36719 80.0625 6.46354 79.75 6.65625C79.4375 6.84896 79.2812 7.11458 79.2812 7.45312C79.2812 7.68229 79.3385 7.8776 79.4531 8.03906C79.5729 8.20052 79.763 8.35417 80.0234 8.5C80.2839 8.64583 80.7839 8.85677 81.5234 9.13281C82.5391 9.5026 83.224 9.875 83.5781 10.25C83.9375 10.625 84.1172 11.0964 84.1172 11.6641Z" fill="white"/>
<path d="M58.2563 47.1798C58.2563 47.1798 52.4875 46.9579 47.9391 50.7298V55.5001C47.9391 55.5001 53.7078 55.5001 58.2563 51.9501C58.811 51.5063 59.3657 50.8407 59.3657 49.6204C59.3657 48.2891 58.9219 47.1798 58.2563 47.1798Z" fill="#B2C1C0"/>
<path d="M19.3171 47.8453L28.414 65.9281L42.9468 61.2687L23.8656 46.514L19.3171 47.8453Z" fill="white"/>
<path d="M23.8656 39.525V46.5141L19.3171 47.8453L21.6468 40.9672L23.8656 39.525Z" fill="white"/>
<path d="M47.9391 56.1656C48.5518 56.1656 49.0485 54.9239 49.0485 53.3922C49.0485 51.8605 48.5518 50.6188 47.9391 50.6188C47.3264 50.6188 46.8297 51.8605 46.8297 53.3922C46.8297 54.9239 47.3264 56.1656 47.9391 56.1656Z" fill="#3E4347"/>
<path d="M65.1344 39.525L58.811 50.3969C58.811 50.3969 32.9625 57.6078 23.8656 60.714C14.7688 63.9312 17.875 67.0375 11.3297 73.4719C3.78595 80.6828 14.325 81.1265 48.9375 67.2594C52.0438 66.039 53.5969 60.9359 58.5891 57.7187C63.9141 54.2797 68.5735 52.8375 68.5735 52.8375L72.0125 36.8625L65.1344 39.525Z" fill="#DAE3EA"/>
<path d="M66.2437 31.2047L61.6953 32.6469L65.1344 39.8578L75.3406 42.2985L80 39.0813L72.0125 36.7516L66.2437 31.2047Z" fill="white"/>
<path d="M32.6296 71.5859L75.4515 79.7953L80 76.5781L50.2687 63.8203L32.6296 71.5859Z" fill="white"/>
<path d="M80 68.7015V76.5781L75.4515 79.7953L77.7812 70.1437L80 68.7015Z" fill="white"/>
<path d="M18.0968 64.0422C16.7656 65.3734 16.1 66.9265 14.9906 68.8125C15.989 70.0328 17.5422 70.6984 19.3172 70.6984C22.5343 70.6984 25.0859 68.2578 25.0859 65.1516H21.6468C20.2047 65.2625 18.9843 64.7078 18.0968 64.0422Z" fill="#3E4347"/>
<path d="M20.5375 74.6922L19.4282 74.9141C18.7625 67.7031 20.6485 63.9312 20.7594 63.8203L21.6469 64.9297L21.2032 64.375L21.6469 64.9297C21.536 64.9297 19.8719 68.2578 20.5375 74.6922Z" fill="#DAE3EA"/>
<path d="M33.0735 67.3703C33.6862 67.3703 34.1829 66.4266 34.1829 65.2625C34.1829 64.0984 33.6862 63.1547 33.0735 63.1547C32.4608 63.1547 31.9641 64.0984 31.9641 65.2625C31.9641 66.4266 32.4608 67.3703 33.0735 67.3703Z" fill="#3E4347"/>
<path d="M37.6219 65.9282C38.2346 65.9282 38.7313 64.9845 38.7313 63.8204C38.7313 62.6563 38.2346 61.7126 37.6219 61.7126C37.0093 61.7126 36.5126 62.6563 36.5126 63.8204C36.5126 64.9845 37.0093 65.9282 37.6219 65.9282Z" fill="#3E4347"/>
<path d="M42.1704 64.486C42.7831 64.486 43.2798 63.5423 43.2798 62.3782C43.2798 61.2141 42.7831 60.2704 42.1704 60.2704C41.5577 60.2704 41.061 61.2141 41.061 62.3782C41.061 63.5423 41.5577 64.486 42.1704 64.486Z" fill="#3E4347"/>
<path d="M66.2437 52.7266C66.2437 52.7266 60.475 52.3938 55.9265 56.8313V62.3782C55.9265 62.3782 61.6953 62.3782 66.2437 58.2735C66.7984 57.8297 67.3531 57.0532 67.3531 55.5C67.3531 53.9469 66.9093 52.7266 66.2437 52.7266Z" fill="#B2C1C0"/>
<path d="M55.9265 62.4891C56.5392 62.4891 57.0359 61.2474 57.0359 59.7156C57.0359 58.1839 56.5392 56.9422 55.9265 56.9422C55.3138 56.9422 54.8171 58.1839 54.8171 59.7156C54.8171 61.2474 55.3138 62.4891 55.9265 62.4891Z" fill="#3E4347"/>
</svg>
